<svg xmlns="http://www.w3.org/2000/svg" viewBox="0 0 129.81 48.17"><title>Asset 1</title><g id="Layer_2" data-name="Layer 2"><g id="Layer_1-2" data-name="Layer 1"><path d="M1.08,59.9V12.09H10.3c5.69,0,8.49,2.88,8.49,8.64v30.1c0,6.34-2.95,9.07-8.49,9.07Zm8.71-6.55c1.08,0,1.66-1.37,1.66-4.1V22.39c0-2.52-.72-3.75-2.16-3.75h-1V53.35Z" transform="translate(-1.08 -12.09)" style="fill:#f7931e"/><path d="M21,59.9V12.09H34.56v6.55H28.22V31.53h5.55v6.63H28.22V53.35H35V59.9Z" transform="translate(-1.08 -12.09)" style="fill:#f7931e"/><path d="M40.39,59.9,35.71,12.09H43L45.5,46.51h.29l2.45-34.42H55.3L50.62,59.9Z" transform="translate(-1.08 -12.09)" style="fill:#f7931e"/><path d="M56.66,59.9V12.09H66.81c5.19,0,7.13,2.81,7.13,7.56v9.08c0,3.16-1.22,5.25-3.74,5.68v.29c2.38.43,4.25,1.66,4.25,6.12V53.5c0,4.24-1.87,6.4-6.84,6.4ZM67.1,21c0-1.8-.36-2.59-1.8-2.59H63.86V31.89H65.3c1.23,0,1.8-.79,1.8-2.37Zm.07,19.37c0-1.66-.71-2.45-2.08-2.45H63.86V53.64h1.23c1.37,0,2.08-.86,2.08-2.59Z" transform="translate(-1.08 -12.09)" style="fill:#3fa9f5"/><path d="M86.69,12.09H94V50.83c0,6.05-3,9.43-8.79,9.43-5.61,0-8.85-3.09-8.85-9.36V12.09h7.13V51.41c0,1.44.57,2.16,1.65,2.16s1.59-.72,1.59-2.16Z" transform="translate(-1.08 -12.09)" style="fill:#3fa9f5"/><path d="M96.19,59.9V12.09h7.34V53.21h6.92V59.9Z" transform="translate(-1.08 -12.09)" style="fill:#3fa9f5"/><path d="M123.62,59.9,122.83,49h-3.67l-.72,10.87h-7.13L116,12.09h10.22l4.68,47.81Zm-4-17.13h2.81l-1.23-18.51h-.29Z" transform="translate(-1.08 -12.09)" style="fill:#3fa9f5"/></g></g></svg>